<mxfile host="app.diagrams.net" modified="2020-09-10T17:05:13.105Z" agent="5.0 (Windows NT 10.0; Win64; x64) AppleWebKit/537.36 (KHTML, like Gecko) Chrome/85.0.4183.102 Safari/537.36" etag="dzhEwKWZUnlD1Oz5SQuK" version="13.6.9" type="github">
  <diagram id="aIpLsst1Jk-rq54jUG6H" name="Page-1">
    <mxGraphModel dx="1422" dy="745" grid="1" gridSize="10" guides="1" tooltips="1" connect="1" arrows="1" fold="1" page="1" pageScale="1" pageWidth="850" pageHeight="1100" math="0" shadow="0">
      <root>
        <mxCell id="0" />
        <mxCell id="1" parent="0" />
        <mxCell id="MwrMFvObGLU1xLNFMvAw-9" style="edgeStyle=orthogonalEdgeStyle;rounded=0;orthogonalLoop=1;jettySize=auto;html=1;" edge="1" parent="1" source="MwrMFvObGLU1xLNFMvAw-1" target="MwrMFvObGLU1xLNFMvAw-2">
          <mxGeometry relative="1" as="geometry" />
        </mxCell>
        <mxCell id="MwrMFvObGLU1xLNFMvAw-1" value="&lt;font style=&quot;font-size: 18px&quot;&gt;START&lt;/font&gt;" style="ellipse;whiteSpace=wrap;html=1;" vertex="1" parent="1">
          <mxGeometry x="340" y="80" width="120" height="80" as="geometry" />
        </mxCell>
        <mxCell id="MwrMFvObGLU1xLNFMvAw-10" style="edgeStyle=orthogonalEdgeStyle;rounded=0;orthogonalLoop=1;jettySize=auto;html=1;entryX=0.5;entryY=0;entryDx=0;entryDy=0;" edge="1" parent="1" source="MwrMFvObGLU1xLNFMvAw-2" target="MwrMFvObGLU1xLNFMvAw-3">
          <mxGeometry relative="1" as="geometry" />
        </mxCell>
        <mxCell id="MwrMFvObGLU1xLNFMvAw-2" value="&lt;font style=&quot;font-size: 18px&quot;&gt;Input A, B, X&lt;sub&gt;1&lt;/sub&gt;, X&lt;sub&gt;2&lt;/sub&gt;&lt;/font&gt;" style="shape=parallelogram;perimeter=parallelogramPerimeter;whiteSpace=wrap;html=1;fixedSize=1;" vertex="1" parent="1">
          <mxGeometry x="290" y="240" width="220" height="80" as="geometry" />
        </mxCell>
        <mxCell id="MwrMFvObGLU1xLNFMvAw-12" style="edgeStyle=orthogonalEdgeStyle;rounded=0;orthogonalLoop=1;jettySize=auto;html=1;entryX=0.5;entryY=0;entryDx=0;entryDy=0;" edge="1" parent="1" source="MwrMFvObGLU1xLNFMvAw-3" target="MwrMFvObGLU1xLNFMvAw-11">
          <mxGeometry relative="1" as="geometry">
            <mxPoint x="160" y="440" as="targetPoint" />
          </mxGeometry>
        </mxCell>
        <mxCell id="MwrMFvObGLU1xLNFMvAw-13" style="edgeStyle=orthogonalEdgeStyle;rounded=0;orthogonalLoop=1;jettySize=auto;html=1;exitX=1;exitY=0.5;exitDx=0;exitDy=0;entryX=0.5;entryY=0;entryDx=0;entryDy=0;" edge="1" parent="1" source="MwrMFvObGLU1xLNFMvAw-3" target="MwrMFvObGLU1xLNFMvAw-4">
          <mxGeometry relative="1" as="geometry">
            <mxPoint x="640" y="440" as="targetPoint" />
          </mxGeometry>
        </mxCell>
        <mxCell id="MwrMFvObGLU1xLNFMvAw-3" value="&lt;font style=&quot;font-size: 18px&quot;&gt;A &amp;gt;= B&lt;/font&gt;" style="rhombus;whiteSpace=wrap;html=1;" vertex="1" parent="1">
          <mxGeometry x="340" y="400" width="120" height="80" as="geometry" />
        </mxCell>
        <mxCell id="MwrMFvObGLU1xLNFMvAw-15" style="edgeStyle=orthogonalEdgeStyle;rounded=0;orthogonalLoop=1;jettySize=auto;html=1;exitX=0.5;exitY=1;exitDx=0;exitDy=0;" edge="1" parent="1" source="MwrMFvObGLU1xLNFMvAw-4">
          <mxGeometry relative="1" as="geometry">
            <mxPoint x="400" y="640" as="targetPoint" />
          </mxGeometry>
        </mxCell>
        <mxCell id="MwrMFvObGLU1xLNFMvAw-4" value="&lt;font style=&quot;font-size: 18px&quot;&gt;X&lt;sub&gt;2&lt;/sub&gt; = A * B&lt;sub&gt;&amp;nbsp;&lt;/sub&gt;&lt;/font&gt;" style="shape=parallelogram;perimeter=parallelogramPerimeter;whiteSpace=wrap;html=1;fixedSize=1;" vertex="1" parent="1">
          <mxGeometry x="560" y="520" width="160" height="40" as="geometry" />
        </mxCell>
        <mxCell id="MwrMFvObGLU1xLNFMvAw-6" value="&lt;font style=&quot;font-size: 18px&quot;&gt;STOP&lt;/font&gt;" style="ellipse;whiteSpace=wrap;html=1;" vertex="1" parent="1">
          <mxGeometry x="340" y="640" width="120" height="80" as="geometry" />
        </mxCell>
        <mxCell id="MwrMFvObGLU1xLNFMvAw-14" style="edgeStyle=orthogonalEdgeStyle;rounded=0;orthogonalLoop=1;jettySize=auto;html=1;exitX=0.5;exitY=1;exitDx=0;exitDy=0;entryX=0.5;entryY=0;entryDx=0;entryDy=0;" edge="1" parent="1" source="MwrMFvObGLU1xLNFMvAw-11" target="MwrMFvObGLU1xLNFMvAw-6">
          <mxGeometry relative="1" as="geometry" />
        </mxCell>
        <mxCell id="MwrMFvObGLU1xLNFMvAw-11" value="&lt;font style=&quot;font-size: 18px&quot;&gt;X&lt;sub&gt;1&lt;/sub&gt;&amp;nbsp;= A / B&lt;sub&gt;&amp;nbsp;&lt;/sub&gt;&lt;/font&gt;" style="shape=parallelogram;perimeter=parallelogramPerimeter;whiteSpace=wrap;html=1;fixedSize=1;" vertex="1" parent="1">
          <mxGeometry x="80" y="520" width="160" height="40" as="geometry" />
        </mxCell>
        <mxCell id="MwrMFvObGLU1xLNFMvAw-16" value="&lt;font style=&quot;font-size: 16px&quot;&gt;Yes&lt;/font&gt;" style="text;html=1;align=center;verticalAlign=middle;resizable=0;points=[];autosize=1;" vertex="1" parent="1">
          <mxGeometry x="240" y="420" width="40" height="20" as="geometry" />
        </mxCell>
        <mxCell id="MwrMFvObGLU1xLNFMvAw-17" value="&lt;font style=&quot;font-size: 16px&quot;&gt;No&lt;/font&gt;" style="text;html=1;align=center;verticalAlign=middle;resizable=0;points=[];autosize=1;" vertex="1" parent="1">
          <mxGeometry x="520" y="420" width="40" height="20" as="geometry" />
        </mxCell>
      </root>
    </mxGraphModel>
  </diagram>
</mxfile>
